<svg xmlns="http://www.w3.org/2000/svg" viewBox="0 0 200 220" fill="none">
  <defs>
    <linearGradient id="g" x1="10" y1="220" x2="190" y2="0" gradientUnits="userSpaceOnUse">
      <stop offset="0%"   stop-color="#2d1b69"/>
      <stop offset="45%"  stop-color="#1a50d9"/>
      <stop offset="100%" stop-color="#22d3ee"/>
    </linearGradient>
  </defs>

  <!-- Soporte de corona -->
  <rect x="84" y="54" width="16" height="9" rx="4.5" fill="url(#g)"/>
  <!-- Botón corona -->
  <rect x="88" y="41" width="9" height="15" rx="4.5" fill="url(#g)"/>

  <!-- Círculo del reloj -->
  <circle cx="96" cy="130" r="72" stroke="url(#g)" stroke-width="9" fill="none"/>

  <!-- Marcas de hora (12 posiciones) -->
  <!-- 12 --> <line x1="96"    y1="58"    x2="96"    y2="70"    stroke="url(#g)" stroke-width="6"   stroke-linecap="round"/>
  <!-- 1  --> <line x1="132"   y1="67.5"  x2="126.8" y2="78.5"  stroke="url(#g)" stroke-width="4.5" stroke-linecap="round"/>
  <!-- 2  --> <line x1="158.5" y1="94"    x2="151"   y2="98.5"  stroke="url(#g)" stroke-width="4.5" stroke-linecap="round"/>
  <!-- 3  --> <line x1="168"   y1="130"   x2="156"   y2="130"   stroke="url(#g)" stroke-width="6"   stroke-linecap="round"/>
  <!-- 4  --> <line x1="158.5" y1="166"   x2="151"   y2="161.5" stroke="url(#g)" stroke-width="4.5" stroke-linecap="round"/>
  <!-- 5  --> <line x1="132"   y1="192.5" x2="126.8" y2="181.5" stroke="url(#g)" stroke-width="4.5" stroke-linecap="round"/>
  <!-- 6  --> <line x1="96"    y1="202"   x2="96"    y2="190"   stroke="url(#g)" stroke-width="6"   stroke-linecap="round"/>
  <!-- 7  --> <line x1="60"    y1="192.5" x2="65.2"  y2="181.5" stroke="url(#g)" stroke-width="4.5" stroke-linecap="round"/>
  <!-- 8  --> <line x1="33.5"  y1="166"   x2="41"    y2="161.5" stroke="url(#g)" stroke-width="4.5" stroke-linecap="round"/>
  <!-- 9  --> <line x1="24"    y1="130"   x2="36"    y2="130"   stroke="url(#g)" stroke-width="6"   stroke-linecap="round"/>
  <!-- 10 --> <line x1="33.5"  y1="94"    x2="41"    y2="98.5"  stroke="url(#g)" stroke-width="4.5" stroke-linecap="round"/>
  <!-- 11 --> <line x1="60"    y1="67.5"  x2="65.2"  y2="78.5"  stroke="url(#g)" stroke-width="4.5" stroke-linecap="round"/>

  <!-- Palomita centrada dentro del reloj -->
  <polyline
    points="62,130 84,154 130,106"
    stroke="url(#g)"
    stroke-width="10"
    stroke-linecap="round"
    stroke-linejoin="round"
    fill="none"
  />
</svg>
